<?xml version="1.0" encoding="utf-8"?>
<!-- Generator: Adobe Illustrator 16.0.0, SVG Export Plug-In . SVG Version: 6.00 Build 0)  -->
<!DOCTYPE svg PUBLIC "-//W3C//DTD SVG 1.1//EN" "http://www.w3.org/Graphics/SVG/1.1/DTD/svg11.dtd">
<svg version="1.1" id="Layer_1" xmlns="http://www.w3.org/2000/svg" xmlns:xlink="http://www.w3.org/1999/xlink" x="0px" y="0px"
	 width="64.712px" height="64.368px" viewBox="0 67.864 64.712 64.368" enable-background="new 0 67.864 64.712 64.368"
	 xml:space="preserve">
<g>
	<path fill="#FFFFFF" d="M28.256,103.271c0-1.775-1.448-3.224-3.224-3.224c-1.776,0-3.224,1.448-3.224,3.224
		c0,1.776,1.44,3.209,3.224,3.225C26.808,106.496,28.256,105.048,28.256,103.271z"/>
	<path fill="#FFFFFF" d="M39.248,110.96c-1.96,1.399-4.328,2.088-6.728,1.96c-2.4,0.112-4.76-0.607-6.696-2.023
		c-0.328-0.265-0.784-0.265-1.104,0c-0.368,0.304-0.424,0.855-0.12,1.224c2.288,1.72,5.088,2.601,7.952,2.479
		c2.864,0.121,5.664-0.76,7.952-2.479v0.128c0.352-0.344,0.36-0.92,0.016-1.271C40.176,110.624,39.6,110.616,39.248,110.96z"/>
	<path fill="#FFFFFF" d="M32.528,67.864c-17.774,0-32.184,14.409-32.184,32.184s14.41,32.185,32.184,32.185
		c17.775,0,32.184-14.41,32.184-32.185S50.303,67.864,32.528,67.864z M51.392,104.328c0.032,0.472,0.032,0.943,0,1.416
		c0,7.216-8.4,13.072-18.76,13.072c-10.36,0-18.76-5.864-18.76-13.072c-0.032-0.473-0.032-0.944,0-1.416
		c-0.472-0.208-0.896-0.504-1.264-0.848c-1.896-1.776-1.984-4.752-0.208-6.641c1.776-1.896,4.752-1.984,6.64-0.208
		c3.712-2.512,8.072-3.888,12.552-3.96l2.376-11.168c0-0.008,0-0.008,0-0.016c0.12-0.544,0.656-0.88,1.192-0.76l7.888,1.576
		c0.504-0.88,1.416-1.472,2.432-1.576c1.768-0.192,3.352,1.088,3.544,2.856s-1.088,3.352-2.856,3.544s-3.352-1.088-3.544-2.856
		l-6.888-1.448l-2.088,10.04c4.424,0.096,8.728,1.464,12.392,3.96c0.832-0.792,1.928-1.264,3.08-1.304
		c2.6-0.088,4.776,1.936,4.872,4.528C54.024,101.855,53.008,103.52,51.392,104.328z"/>
	<path fill="#FFFFFF" d="M39.928,100.16c-1.776,0-3.224,1.447-3.224,3.224s1.448,3.224,3.224,3.224l-0.024,0.121
		c0.056,0,0.104,0,0.16,0c1.776-0.072,3.16-1.568,3.088-3.345C43.152,101.607,41.704,100.16,39.928,100.16z"/>
</g>
</svg>
