<?xml version="1.0" encoding="utf-8"?>
<!-- Generator: Adobe Illustrator 16.0.0, SVG Export Plug-In . SVG Version: 6.00 Build 0)  -->
<!DOCTYPE svg PUBLIC "-//W3C//DTD SVG 1.1//EN" "http://www.w3.org/Graphics/SVG/1.1/DTD/svg11.dtd">
<svg version="1.1" id="Layer_1" xmlns="http://www.w3.org/2000/svg" xmlns:xlink="http://www.w3.org/1999/xlink" x="0px" y="0px"
	 width="200px" height="100px" viewBox="0 0 200 100" enable-background="new 0 0 200 100" xml:space="preserve">
<path fill="#FFFFFF" d="M48,5.75c-22.091,0-40,17.909-40,40c0,22.092,17.909,40,40,40s40-17.908,40-40C88,23.659,70.091,5.75,48,5.75z
	 M71.173,46.99c-0.16,0.4-0.64,0.72-1.12,0.72h-11.52v18.801c0,0.639-0.561,1.199-1.201,1.199H38.613c-0.64,0-1.2-0.561-1.2-1.199
	V47.71h-11.44c-0.48,0-0.88-0.239-1.12-0.72c-0.16-0.4-0.16-0.96,0.16-1.28l22-25.52c0.24-0.24,0.64-0.4,0.96-0.4
	s0.721,0.16,0.96,0.4l22,25.52c0.16,0.24,0.319,0.479,0.319,0.8C71.252,46.67,71.252,46.83,71.173,46.99z"/>
</svg>
