<?xml version="1.0" encoding="utf-8"?>
<!-- Generator: Adobe Illustrator 16.0.0, SVG Export Plug-In . SVG Version: 6.00 Build 0)  -->
<!DOCTYPE svg PUBLIC "-//W3C//DTD SVG 1.1//EN" "http://www.w3.org/Graphics/SVG/1.1/DTD/svg11.dtd">
<svg version="1.1" id="Layer_1" xmlns="http://www.w3.org/2000/svg" xmlns:xlink="http://www.w3.org/1999/xlink" x="0px" y="0px"
	 width="1024px" height="768px" viewBox="0 0 1024 768" enable-background="new 0 0 1024 768" xml:space="preserve">
<g>
	<path fill="#FFF" d="M465.306,538.215c54.682,0,108.749-20.89,150.528-62.055c25.805-25.805,44.236-57.754,54.066-92.16
		c3.687-12.902-3.686-26.419-17.203-30.105c-12.902-3.687-26.419,3.687-30.105,17.203c-7.373,26.419-22.118,50.995-41.779,70.656
		c-63.897,63.897-167.73,63.897-231.628,0c-63.898-63.898-63.898-167.731,0-231.629c63.898-63.898,167.731-63.898,231.628,0
		c2.458,2.458,5.53,5.529,7.987,8.602h-9.83l0,0c-13.517,0-24.576,11.059-24.576,24.576c0,13.517,11.06,24.576,24.576,24.576
		l91.546,0.614l3.686-96.46c0.615-13.517-9.83-25.19-23.347-25.805c-13.517-0.614-25.19,9.831-25.805,23.347l-0.614,14.746
		c-3.072-3.072-6.145-6.758-9.217-9.83c-82.943-82.944-218.111-82.944-301.056,0c-82.33,83.558-82.33,218.726,0.614,301.67
		C355.942,517.325,410.624,538.215,465.306,538.215z"/>
</g>
</svg>
